<svg width="800" height="450" viewBox="0 0 800 450" fill="none" xmlns="http://www.w3.org/2000/svg">
  <rect width="800" height="450" fill="#F6F8FA"/>
  <!-- Header -->
  <rect x="0" y="0" width="800" height="56" fill="white"/>
  <rect x="20" y="18" width="140" height="16" rx="4" fill="#EAEDF2"/>
  <rect x="660" y="16" width="60" height="22" rx="6" fill="#8AAEE8"/>
  <rect x="672" y="23" width="36" height="8" rx="3" fill="white"/>
  <rect x="728" y="16" width="50" height="22" rx="6" fill="transparent"/>
  <rect x="728" y="16" width="50" height="22" rx="6" stroke="#EAEDF2" stroke-width="1"/>
  <rect x="736" y="23" width="34" height="8" rx="3" fill="#1D232F"/>
  <!-- KPI tiles row -->
  <rect x="20" y="76" width="175" height="76" rx="8" fill="white"/>
  <rect x="207" y="76" width="175" height="76" rx="8" fill="white"/>
  <rect x="394" y="76" width="175" height="76" rx="8" fill="white"/>
  <rect x="581" y="76" width="199" height="76" rx="8" fill="white"/>
  <!-- KPI content -->
  <rect x="36" y="91" width="70" height="9" rx="3" fill="#A5ACB9"/>
  <rect x="36" y="108" width="90" height="20" rx="4" fill="#1D232F"/>
  <rect x="36" y="134" width="50" height="8" rx="3" fill="#72C9A8"/>
  <rect x="223" y="91" width="70" height="9" rx="3" fill="#A5ACB9"/>
  <rect x="223" y="108" width="80" height="20" rx="4" fill="#1D232F"/>
  <rect x="223" y="134" width="50" height="8" rx="3" fill="#72C9A8"/>
  <rect x="410" y="91" width="70" height="9" rx="3" fill="#A5ACB9"/>
  <rect x="410" y="108" width="90" height="20" rx="4" fill="#1D232F"/>
  <rect x="410" y="134" width="50" height="8" rx="3" fill="#E08A92"/>
  <rect x="597" y="91" width="70" height="9" rx="3" fill="#A5ACB9"/>
  <rect x="597" y="108" width="80" height="20" rx="4" fill="#1D232F"/>
  <rect x="597" y="134" width="50" height="8" rx="3" fill="#72C9A8"/>
  <!-- Chart tiles row -->
  <rect x="20" y="168" width="375" height="200" rx="8" fill="white"/>
  <rect x="405" y="168" width="375" height="200" rx="8" fill="white"/>
  <!-- Chart titles -->
  <rect x="36" y="184" width="110" height="12" rx="4" fill="#1D232F"/>
  <rect x="421" y="184" width="100" height="12" rx="4" fill="#1D232F"/>
  <!-- Bar chart left -->
  <rect x="36" y="215" width="339" height="130" rx="4" fill="#F6F8FA"/>
  <rect x="55" y="290" width="24" height="46" rx="3" fill="#8AAEE8" fill-opacity="0.6"/>
  <rect x="90" y="270" width="24" height="66" rx="3" fill="#8AAEE8" fill-opacity="0.7"/>
  <rect x="125" y="250" width="24" height="86" rx="3" fill="#8AAEE8" fill-opacity="0.85"/>
  <rect x="160" y="280" width="24" height="56" rx="3" fill="#8AAEE8" fill-opacity="0.6"/>
  <rect x="195" y="260" width="24" height="76" rx="3" fill="#8AAEE8" fill-opacity="0.75"/>
  <rect x="230" y="240" width="24" height="96" rx="3" fill="#8AAEE8" fill-opacity="0.85"/>
  <rect x="265" y="275" width="24" height="61" rx="3" fill="#8AAEE8" fill-opacity="0.55"/>
  <rect x="300" y="255" width="24" height="81" rx="3" fill="#8AAEE8" fill-opacity="0.7"/>
  <!-- Line chart right -->
  <rect x="421" y="215" width="339" height="130" rx="4" fill="#F6F8FA"/>
  <path d="M440 320 L490 295 L540 305 L590 270 L640 285 L690 255 L740 265" stroke="#8AAEE8" stroke-width="2.5" fill="none" stroke-linecap="round" stroke-linejoin="round"/>
  <path d="M440 320 L490 295 L540 305 L590 270 L640 285 L690 255 L740 265 L740 345 L440 345 Z" fill="#8AAEE8" fill-opacity="0.08"/>
  <!-- Spotter panel indicator -->
  <rect x="20" y="382" width="760" height="50" rx="8" fill="white"/>
  <rect x="36" y="397" width="16" height="16" rx="4" fill="#8AAEE8" fill-opacity="0.15"/>
  <rect x="38" y="400" width="12" height="10" rx="2" fill="#8AAEE8"/>
  <rect x="60" y="400" width="120" height="8" rx="3" fill="#1D232F"/>
  <rect x="60" y="414" width="200" height="6" rx="3" fill="#A5ACB9"/>
  <text x="400" y="444" fill="#A5ACB9" font-family="system-ui" font-size="13" text-anchor="middle" font-weight="400">Liveboard template</text>
</svg>
