<svg width="800" height="450" viewBox="0 0 800 450" fill="none" xmlns="http://www.w3.org/2000/svg">
  <rect width="800" height="450" fill="#F6F8FA"/>
  <!-- Header -->
  <rect x="0" y="0" width="800" height="52" fill="white"/>
  <rect x="20" y="18" width="120" height="14" rx="4" fill="#EAEDF2"/>
  <rect x="650" y="16" width="80" height="20" rx="6" fill="#8AAEE8"/>
  <rect x="660" y="22" width="60" height="8" rx="3" fill="white"/>
  <!-- Left panel - model list -->
  <rect x="0" y="52" width="220" height="398" fill="white"/>
  <rect x="16" y="72" width="100" height="10" rx="3" fill="#A5ACB9"/>
  <rect x="16" y="96" width="188" height="36" rx="6" fill="#8AAEE8" fill-opacity="0.1"/>
  <rect x="28" y="107" width="100" height="10" rx="3" fill="#8AAEE8"/>
  <rect x="16" y="140" width="188" height="36" rx="6" fill="transparent"/>
  <rect x="28" y="151" width="120" height="10" rx="3" fill="#1D232F"/>
  <rect x="16" y="184" width="188" height="36" rx="6" fill="transparent"/>
  <rect x="28" y="195" width="90" height="10" rx="3" fill="#1D232F"/>
  <rect x="16" y="228" width="188" height="36" rx="6" fill="transparent"/>
  <rect x="28" y="239" width="110" height="10" rx="3" fill="#1D232F"/>
  <!-- Main content -->
  <rect x="236" y="68" width="540" height="28" rx="6" fill="white"/>
  <rect x="252" y="78" width="160" height="10" rx="3" fill="#1D232F"/>
  <!-- Table header -->
  <rect x="236" y="108" width="540" height="32" rx="0" fill="#F6F8FA"/>
  <rect x="252" y="119" width="60" height="10" rx="3" fill="#A5ACB9"/>
  <rect x="380" y="119" width="80" height="10" rx="3" fill="#A5ACB9"/>
  <rect x="540" y="119" width="60" height="10" rx="3" fill="#A5ACB9"/>
  <rect x="660" y="119" width="60" height="10" rx="3" fill="#A5ACB9"/>
  <!-- Table rows -->
  <rect x="236" y="140" width="540" height="1" fill="#EAEDF2"/>
  <rect x="252" y="152" width="80" height="10" rx="3" fill="#1D232F"/>
  <rect x="380" y="152" width="60" height="10" rx="3" fill="#A5ACB9"/>
  <rect x="540" y="150" width="50" height="14" rx="4" fill="rgba(114,201,168,0.15)"/>
  <rect x="548" y="153" width="34" height="8" rx="3" fill="#72C9A8"/>
  <rect x="236" y="172" width="540" height="1" fill="#EAEDF2"/>
  <rect x="252" y="184" width="110" height="10" rx="3" fill="#1D232F"/>
  <rect x="380" y="184" width="80" height="10" rx="3" fill="#A5ACB9"/>
  <rect x="540" y="182" width="50" height="14" rx="4" fill="rgba(138,174,232,0.15)"/>
  <rect x="548" y="185" width="34" height="8" rx="3" fill="#8AAEE8"/>
  <rect x="236" y="204" width="540" height="1" fill="#EAEDF2"/>
  <rect x="252" y="216" width="90" height="10" rx="3" fill="#1D232F"/>
  <rect x="380" y="216" width="70" height="10" rx="3" fill="#A5ACB9"/>
  <rect x="540" y="214" width="50" height="14" rx="4" fill="rgba(224,138,146,0.15)"/>
  <rect x="548" y="217" width="34" height="8" rx="3" fill="#E08A92"/>
  <rect x="236" y="236" width="540" height="1" fill="#EAEDF2"/>
  <rect x="252" y="248" width="100" height="10" rx="3" fill="#1D232F"/>
  <rect x="380" y="248" width="60" height="10" rx="3" fill="#A5ACB9"/>
  <rect x="540" y="246" width="50" height="14" rx="4" fill="rgba(114,201,168,0.15)"/>
  <rect x="548" y="249" width="34" height="8" rx="3" fill="#72C9A8"/>
  <!-- Bottom action bar -->
  <rect x="236" y="390" width="540" height="58" fill="white"/>
  <rect x="236" y="390" width="540" height="1" fill="#EAEDF2"/>
  <rect x="550" y="407" width="100" height="26" rx="6" fill="#8AAEE8"/>
  <rect x="566" y="415" width="68" height="10" rx="3" fill="white"/>
  <rect x="440" y="407" width="100" height="26" rx="6" fill="transparent"/>
  <rect x="440" y="407" width="100" height="26" rx="6" stroke="#EAEDF2" stroke-width="1"/>
  <rect x="456" y="415" width="68" height="10" rx="3" fill="#1D232F"/>
  <text x="400" y="438" fill="#A5ACB9" font-family="system-ui" font-size="13" text-anchor="middle" font-weight="400">Spotter Model</text>
</svg>
