<svg width="14" height="14" viewBox="0 0 14 14" fill="none" xmlns="http://www.w3.org/2000/svg">
<path d="M11.0523 0.276129C11.1184 0.932933 11.4077 1.54713 11.8719 2.01671C12.3359 2.48603 12.9468 2.78225 13.6027 2.85605C13.759 2.87423 13.8764 3.00684 13.8755 3.16397C13.8747 3.32118 13.7556 3.45252 13.5993 3.46895C12.9427 3.53518 12.3283 3.82437 11.8589 4.28863C11.3894 4.75264 11.0932 5.36354 11.0196 6.01954C11.0014 6.17578 10.8686 6.29313 10.7115 6.29218C10.5543 6.29139 10.4231 6.17242 10.4067 6.01612C10.3403 5.35942 10.0511 4.74505 9.58703 4.27572C9.12286 3.80615 8.51196 3.50993 7.85597 3.4363C7.69998 3.41802 7.58238 3.28534 7.58334 3.12821C7.58413 2.971 7.70317 2.83966 7.85947 2.82323C8.51626 2.75708 9.13046 2.46781 9.59979 2.00372C10.0694 1.53954 10.3656 0.928646 10.4392 0.272643C10.4575 0.116646 10.5901 -0.000782003 10.7473 3.92176e-06C10.9044 0.000957675 11.0359 0.119833 11.0523 0.276129Z" fill="#2770EF"/>
<path d="M9.91667 8.62553C10.3796 8.16258 10.7916 7.6737 11.0994 7.14193C10.683 7.22689 10.1502 7.16958 9.73432 6.81461C9.5146 7.12588 9.2541 7.41442 8.98677 7.68176C8.31394 8.35458 8.06267 9.20886 8.06267 9.7922H6.03064C6.03064 9.23165 5.6856 8.35458 5.01277 7.68176C4.08333 6.75232 3.66282 6.14049 3.66282 5.12551C3.66282 3.36803 5.15983 1.93792 7 1.93792C7.27488 1.93792 7.54211 1.96984 7.79783 2.03002C8.10463 2.10222 8.93014 1.62809 9.23105 1.21073C8.56795 0.864545 7.80773 0.667643 7.00025 0.667643C4.42683 0.667643 2.33333 2.66749 2.33333 5.12553C2.33333 6.52269 3.04516 7.58735 4.08333 8.62553C4.86376 9.40596 4.86376 10.3755 4.86376 10.4096V10.9589H9.2311V10.4101C9.2311 10.4101 9.2311 9.3111 9.91667 8.62553Z" fill="#2770EF"/>
<path d="M4.86375 11.6766H9.22869V12.6028C9.22869 12.8549 9.07622 13.0618 8.8898 13.0618H8.04757V13.4449C8.04757 13.7513 7.75036 13.8597 7.58728 13.8755H6.42061C6.15629 13.8755 5.9717 13.6773 5.9717 13.4266V13.0618H5.22266C5.02534 13.0618 4.86375 12.8549 4.86375 12.6028V11.6766Z" fill="#2770EF"/>
<path d="M2.56933 10.8253C2.28925 10.5451 2.11362 10.1776 2.07172 9.78373C2.06134 9.69001 1.98209 9.61913 1.88781 9.61908C1.79349 9.61914 1.71432 9.69004 1.70388 9.7837C1.66191 10.1775 1.48623 10.5451 1.20606 10.8252C0.926034 11.1052 0.558495 11.2808 0.164647 11.3227C0.0709271 11.3331 -5.66993e-05 11.4123 3.39836e-08 11.5066C-4.42029e-05 11.6009 0.0709589 11.6801 0.164616 11.6906C0.558453 11.7325 0.925981 11.9082 1.20606 12.1884C1.48608 12.4684 1.66167 12.8361 1.70371 13.2298C1.7141 13.3236 1.7932 13.3945 1.88752 13.3944C1.9818 13.3945 2.06107 13.3236 2.07145 13.2298C2.11343 12.836 2.2891 12.4685 2.56923 12.1885C2.8493 11.9083 3.21694 11.7328 3.61069 11.6908C3.70441 11.6804 3.77539 11.6012 3.77533 11.5069C3.77538 11.4126 3.70447 11.3334 3.61067 11.3231C3.21688 11.281 2.84935 11.1053 2.56933 10.8253Z" fill="#2770EF"/>
</svg>
