<svg width="32" height="32" viewBox="0 0 32 32" fill="none" xmlns="http://www.w3.org/2000/svg">
<path fill-rule="evenodd" clip-rule="evenodd" d="M16 32C24.8366 32 32 24.8366 32 16C32 7.16344 24.8366 0 16 0C7.16344 0 0 7.16344 0 16C0 24.8366 7.16344 32 16 32Z" fill="#C0C6CF"/>
<path fill-rule="evenodd" clip-rule="evenodd" d="M20.6349 14.9275C20.6349 17.9645 18.1334 20.4265 15.0476 20.4265C11.9619 20.4265 9.46034 17.9645 9.46034 14.9275C9.46034 11.8904 11.9619 9.42838 15.0476 9.42838C18.1334 9.42838 20.6349 11.8904 20.6349 14.9275ZM19.9033 20.7063C18.585 21.7806 16.8929 22.4262 15.0476 22.4262C10.8398 22.4262 7.42859 19.0689 7.42859 14.9275C7.42859 10.786 10.8398 7.42871 15.0476 7.42871C19.2555 7.42871 22.6667 10.786 22.6667 14.9275C22.6667 16.5314 22.1551 18.0177 21.2836 19.2369L25.1192 23.0119L23.6826 24.4259L19.9033 20.7063Z" fill="white"/>
</svg>
