<svg width="48" height="14" viewBox="0 0 48 14" fill="none" xmlns="http://www.w3.org/2000/svg">
<line y1="6.5" x2="48" y2="6.5" stroke="black"/>
<rect x="8.42857" y="0.428571" width="31.1429" height="12.8571" rx="6.42857" fill="white" stroke="#4A515E" stroke-width="0.857143"/>
<path d="M24.5723 4.57129L24.5723 9.14272" stroke="#C0C6CF" stroke-width="0.857143" stroke-linecap="round"/>
<path d="M31.9997 9.71429C33.5777 9.71429 34.8569 8.4351 34.8569 6.85714C34.8569 5.27919 33.5777 4 31.9997 4C30.4218 4 29.1426 5.27919 29.1426 6.85714C29.1426 8.4351 30.4218 9.71429 31.9997 9.71429Z" stroke="#4A515E" stroke-width="0.857143"/>
<path d="M31.9992 9.71429C32.5909 9.71429 33.0706 8.4351 33.0706 6.85714C33.0706 5.27919 32.5909 4 31.9992 4C31.4074 4 30.9277 5.27919 30.9277 6.85714C30.9277 8.4351 31.4074 9.71429 31.9992 9.71429Z" stroke="#4A515E" stroke-width="0.857143"/>
<path d="M29.1426 6.85693H34.8569" stroke="#4A515E" stroke-width="0.857143" stroke-linecap="round"/>
<path d="M15.1431 9.14272C16.4055 9.14272 17.4289 8.11937 17.4289 6.857C17.4289 5.59464 16.4055 4.57129 15.1431 4.57129C13.8808 4.57129 12.8574 5.59464 12.8574 6.857C12.8574 8.11937 13.8808 9.14272 15.1431 9.14272Z" stroke="#4A515E" stroke-width="0.857143"/>
<path d="M17.4283 9.14272C18.6907 9.14272 19.714 8.11937 19.714 6.857C19.714 5.59464 18.6907 4.57129 17.4283 4.57129C16.1659 4.57129 15.1426 5.59464 15.1426 6.857C15.1426 8.11937 16.1659 9.14272 17.4283 9.14272Z" stroke="#4A515E" stroke-width="0.857143"/>
</svg>
