<svg width="32" height="14" viewBox="0 0 32 14" fill="none" xmlns="http://www.w3.org/2000/svg">
<rect x="0.428571" y="0.428571" width="31.1429" height="12.8571" rx="6.42857" fill="white" stroke="#4A515E" stroke-width="0.857143"/>
<path d="M16.5723 4.57153L16.5723 9.14296" stroke="#C0C6CF" stroke-width="0.857143" stroke-linecap="round"/>
<path d="M23.9997 9.71429C25.5777 9.71429 26.8569 8.4351 26.8569 6.85714C26.8569 5.27919 25.5777 4 23.9997 4C22.4218 4 21.1426 5.27919 21.1426 6.85714C21.1426 8.4351 22.4218 9.71429 23.9997 9.71429Z" stroke="#4A515E" stroke-width="0.857143"/>
<path d="M23.9992 9.71429C24.5909 9.71429 25.0706 8.4351 25.0706 6.85714C25.0706 5.27919 24.5909 4 23.9992 4C23.4074 4 22.9277 5.27919 22.9277 6.85714C22.9277 8.4351 23.4074 9.71429 23.9992 9.71429Z" stroke="#4A515E" stroke-width="0.857143"/>
<path d="M21.1426 6.85718H26.8569" stroke="#4A515E" stroke-width="0.857143" stroke-linecap="round"/>
<path d="M7.14314 9.14296C8.4055 9.14296 9.42885 8.11961 9.42885 6.85725C9.42885 5.59488 8.4055 4.57153 7.14314 4.57153C5.88077 4.57153 4.85742 5.59488 4.85742 6.85725C4.85742 8.11961 5.88077 9.14296 7.14314 9.14296Z" stroke="#4A515E" stroke-width="0.857143"/>
<path d="M9.42829 9.14296C10.6907 9.14296 11.714 8.11961 11.714 6.85725C11.714 5.59488 10.6907 4.57153 9.42829 4.57153C8.16593 4.57153 7.14258 5.59488 7.14258 6.85725C7.14258 8.11961 8.16593 9.14296 9.42829 9.14296Z" stroke="#4A515E" stroke-width="0.857143"/>
</svg>
