<svg width="24" height="24" viewBox="0 0 24 24" fill="none" xmlns="http://www.w3.org/2000/svg">
<circle cx="12" cy="12" r="12" fill="#EAEDF2"/>
<path fill-rule="evenodd" clip-rule="evenodd" d="M17 5C18.1046 5 19 5.89543 19 7V17C19 18.1046 18.1046 19 17 19H7C5.89543 19 5 18.1046 5 17V7C5 5.89543 5.89543 5 7 5H17ZM11.2 6.2V17.8H17C17.4418 17.8 17.8 17.4418 17.8 17V7C17.8 6.55817 17.4418 6.2 17 6.2H11.2ZM10 17.8V6.2H7C6.55817 6.2 6.2 6.55817 6.2 7V17C6.2 17.4418 6.55817 17.8 7 17.8H10Z" fill="#1D232F"/>
</svg>
