<svg width="14" height="14" viewBox="0 0 14 14" fill="none" xmlns="http://www.w3.org/2000/svg">
<path fill-rule="evenodd" clip-rule="evenodd" d="M12.4308 6.6111H14L11.6667 8.94443L9.33333 6.6111H10.8698C10.7734 5.63222 10.3169 4.76117 9.63457 4.13188C8.94614 3.49693 8.03113 3.1111 7.02539 3.1111C6.01965 3.1111 5.10463 3.49693 4.4162 4.13188L3.36157 2.98842C4.32517 2.09968 5.61263 1.55554 7.02539 1.55554C8.43814 1.55554 9.7256 2.09968 10.6892 2.98842C11.6788 3.90111 12.3302 5.1804 12.4308 6.6111ZM2.33333 4.66665L0 6.99999H1.59746C1.75663 8.4673 2.36106 9.78852 3.26838 10.7648C4.22184 11.7908 5.52186 12.4444 6.97461 12.4444C8.42737 12.4444 9.72738 11.7908 10.6808 10.7648L9.54138 9.70588C8.84281 10.4576 7.94035 10.8889 6.97461 10.8889C6.00887 10.8889 5.10641 10.4576 4.40784 9.70588C3.77184 9.02152 3.315 8.07889 3.16466 6.99999H4.66667L2.33333 4.66665Z" fill="#2770EF"/>
</svg>
