<svg width="32" height="32" viewBox="0 0 32 32" fill="none" xmlns="http://www.w3.org/2000/svg">
<path d="M16 32C24.8366 32 32 24.8366 32 16C32 7.16345 24.8366 0 16 0C7.16345 0 0 7.16345 0 16C0 24.8366 7.16345 32 16 32Z" fill="#A9EFFF"/>
<mask id="mask0_2748_67130" style="mask-type:luminance" maskUnits="userSpaceOnUse" x="-1" y="-1" width="33" height="33">
<path d="M15.9994 31.9993C24.8359 31.9993 31.9994 24.8359 31.9994 15.9993C31.9994 7.16277 24.8359 -0.000671387 15.9994 -0.000671387C7.16284 -0.000671387 -0.000610352 7.16277 -0.000610352 15.9993C-0.000610352 24.8359 7.16284 31.9993 15.9994 31.9993Z" fill="white"/>
</mask>
<g mask="url(#mask0_2748_67130)">
<path d="M25.5949 31.3323C26.4342 35.4498 19.8279 36.1477 15.5613 36.4638C11.2947 36.78 4.49573 34.4803 6.32014 30.3606C8.02099 26.5181 11.0086 21.2497 15.2863 21.2497C21.4675 21.2497 24.6866 26.8721 25.5949 31.3323Z" fill="#1B3E61"/>
</g>
<path d="M24.4286 9.95026C21.4399 9.68979 18.7996 11.9116 18.5413 14.8992C18.5291 15.0461 18.5224 15.1942 18.5213 15.3433C17.8222 15.2253 17.2111 15.3645 16.8394 15.4925C16.5911 12.9123 14.4907 10.8196 11.8949 10.5948C8.90838 10.3365 6.26583 12.5561 6.00758 15.5437C5.88291 16.9885 6.32927 18.3977 7.2643 19.5109C8.20043 20.624 9.51169 21.3063 10.9565 21.431C11.1157 21.4443 11.2749 21.4521 11.4329 21.4521C12.7086 21.4521 13.933 21.0069 14.9237 20.1743C16.0368 19.2381 16.7191 17.9269 16.8438 16.4821C16.8549 16.3485 16.8616 16.2105 16.8639 16.0713C17.131 15.9633 17.7966 15.7485 18.548 15.9088C18.8062 18.5146 20.8722 20.5605 23.4914 20.7876C26.4768 21.0481 29.1193 18.8263 29.3787 15.8387C29.638 12.8511 27.4174 10.2096 24.4297 9.95137L24.4286 9.95026ZM28.831 15.7908C28.7186 17.0898 28.1053 18.2686 27.1046 19.1101C26.1039 19.9517 24.836 20.3524 23.5381 20.2411C20.8522 20.0084 18.8563 17.6341 19.089 14.9493C19.2014 13.6503 19.8147 12.4715 20.8154 11.63C21.8161 10.7884 23.0829 10.3877 24.3819 10.499C25.6809 10.6115 26.8597 11.2248 27.7012 12.2255C28.5427 13.2262 28.9446 14.4929 28.8321 15.7919L28.831 15.7908ZM16.2962 16.4342C16.0635 19.1201 13.687 21.1137 11.0044 20.8833C9.70537 20.7709 8.52658 20.1576 7.68506 19.1569C6.84354 18.1562 6.4417 16.8895 6.55412 15.5904C6.66655 14.2914 7.27988 13.1126 8.28057 12.2711C9.17107 11.5231 10.2719 11.1224 11.4185 11.1224C11.5609 11.1224 11.7034 11.1279 11.847 11.1413C14.533 11.3739 16.5288 13.7482 16.2962 16.4331V16.4342Z" fill="#1B3E61"/>
<path d="M26.7473 13.0837C26.479 12.3824 26.0159 11.5576 25.4338 10.7606C25.3169 10.6003 25.1944 10.4411 25.0676 10.2842C25.0008 10.2007 24.9329 10.1183 24.8639 10.037C25.672 9.52835 25.8723 8.39408 25.8723 8.39408C25.7621 8.56105 25.3514 8.79592 24.8338 9.04192C25.5273 8.40188 25.8167 7.57705 25.6475 6.37154C25.6475 6.37154 25.5184 7.58707 24.0635 8.11692C23.822 8.20485 23.5359 8.31728 23.222 8.4464C23.7463 8.09577 24.1648 7.72064 24.2928 7.34775C24.6891 6.19233 23.7307 5.23505 23.7307 5.23505C23.7307 5.23505 23.8709 6.42497 21.7004 7.65831C19.5843 7.0038 18.0727 5.24395 13.3787 6.50957C11.8292 6.92699 10.5714 7.58039 9.57959 8.2683C8.75254 7.99892 8.0201 7.64941 7.65723 7.1485C7.65723 7.1485 7.02943 8.51653 8.6223 9.0063C8.6223 9.0063 5.79831 8.51987 4.97238 6.75C4.94789 6.69769 4.1765 7.81304 5.00466 8.93395C5.49555 9.59848 6.13893 10.0181 6.89697 10.2508C5.46104 10.2886 4.51711 9.62297 4.51711 9.62297C4.85216 10.5602 5.58014 11.0823 6.45283 11.3472C5.90184 11.7735 4.41804 13.1438 4.19653 15.7073L4.76089 14.7945C4.76089 14.7945 4.19208 16.9028 4.69744 18.5046L5.02024 17.5851C5.02024 17.5851 5.10373 20.083 6.15117 20.8599L6.14338 19.9594C6.14338 19.9594 7.1463 21.6614 8.71246 22.2702L7.58153 22.9993C7.58153 22.9993 8.6223 23.5181 9.69201 23.3823C10.7038 23.2531 11.2047 23.0305 11.2047 23.0305L10.0126 24.2271C10.0126 24.2271 12.0151 24.2405 13.1783 23.2999C13.0303 23.5659 12.9646 23.9655 13.2818 24.5098C13.2818 24.5098 15.3099 24.1971 15.881 23.3745C15.881 23.3745 16.5255 24.4019 17.525 24.3885C17.525 24.3885 18.5246 23.8743 18.6994 23.1752C18.6994 23.1752 19.5353 23.9188 20.1064 23.9255C20.1064 23.9255 20.5026 23.645 20.5271 23.1897C20.5271 23.1897 22.0187 23.6327 22.9292 23.0973L22.169 21.8228L22.2781 21.7805C23.2142 21.4165 24.0925 20.9167 24.8694 20.2856C24.9974 20.182 25.1232 20.0752 25.2457 19.9639C25.3336 19.8837 25.4182 19.8025 25.4994 19.7212C25.8178 19.404 26.0694 19.0856 26.1495 18.8162C26.4311 17.869 26.6582 16.4052 26.6582 16.4052C26.6582 16.4052 26.9031 16.9963 26.8741 17.5528C27.2927 16.5221 27.345 14.6509 26.7473 13.0825V13.0837Z" fill="#1B3E61"/>
<mask id="mask1_2748_67130" style="mask-type:luminance" maskUnits="userSpaceOnUse" x="4" y="5" width="24" height="20">
<path d="M26.7464 13.0843C26.4781 12.3831 26.0151 11.5582 25.4329 10.7612C25.316 10.601 25.1936 10.4418 25.0667 10.2848C24.9999 10.2013 24.9209 10.0867 24.8508 10.0043C25.6589 9.49563 25.8715 8.39475 25.8715 8.39475C25.7613 8.56172 25.3505 8.79659 24.8329 9.04259C25.5264 8.40255 25.8158 7.57772 25.6466 6.37221C25.6466 6.37221 25.5175 7.58774 24.0627 8.11759C23.8211 8.20552 23.535 8.31795 23.2211 8.44707C23.7454 8.09644 24.164 7.72132 24.292 7.34842C24.6882 6.193 23.7298 5.23572 23.7298 5.23572C23.7298 5.23572 23.8701 6.42564 21.6995 7.65898C19.5835 7.00447 18.0718 5.24462 13.3778 6.51024C11.8283 6.92766 10.5705 7.58106 9.57873 8.26897C8.75168 7.9996 8.01925 7.65008 7.65637 7.14917C7.65637 7.14917 7.02857 8.5172 8.62145 9.00697C8.62145 9.00697 5.79746 8.52054 4.97152 6.75068C4.94704 6.69836 4.17564 7.81371 5.0038 8.93462C5.49469 9.59915 6.13808 10.0188 6.89611 10.2514C5.46018 10.2893 4.51626 9.62364 4.51626 9.62364C4.85131 10.5609 5.57929 11.0829 6.45198 11.3479C5.90098 11.7742 4.41719 13.1444 4.19568 15.708L4.76003 14.7952C4.76003 14.7952 4.19123 16.9035 4.69658 18.5052L5.01939 17.5858C5.01939 17.5858 5.10287 20.0836 6.15032 20.8606L6.14253 19.9601C6.14253 19.9601 7.14545 21.662 8.71161 22.2709L7.58068 23C7.58068 23 8.62145 23.5187 9.69116 23.3829C10.703 23.2538 11.2039 23.0312 11.2039 23.0312L10.0117 24.2278C10.0117 24.2278 12.0142 24.2411 13.1775 23.3006C13.0294 23.5666 12.9637 23.9662 13.281 24.5105C13.281 24.5105 15.3091 24.1977 15.8801 23.3751C15.8801 23.3751 16.5246 24.4025 17.5242 24.3892C17.5242 24.3892 18.5238 23.8749 18.6985 23.1759C18.6985 23.1759 19.5345 23.9195 20.1055 23.9261C20.1055 23.9261 20.5018 23.6456 20.5263 23.1904C20.5263 23.1904 22.0179 23.6334 22.9284 23.098L22.1681 21.8234L22.2772 21.7811C23.2134 21.4172 24.0916 20.9174 24.8686 20.2862C24.9966 20.1827 25.1224 20.0758 25.2448 19.9645C25.3327 19.8844 25.4173 19.8031 25.4986 19.7219C25.8169 19.4046 26.0685 19.0863 26.1487 18.8169C26.4303 17.8696 26.6573 16.4059 26.6573 16.4059C26.6573 16.4059 26.9022 16.997 26.8733 17.5535C27.2918 16.5228 27.3441 14.6516 26.7464 13.0832V13.0843Z" fill="white"/>
</mask>
<g mask="url(#mask1_2748_67130)">
<path d="M24.4279 9.95008C21.4392 9.6896 18.7988 11.9114 18.5406 14.899C18.5283 15.0459 18.5217 15.194 18.5206 15.3431C17.8215 15.2252 17.2104 15.3643 16.8386 15.4923C16.5904 12.9121 14.4899 10.8194 11.8941 10.5946C8.90764 10.3363 6.26509 12.5559 6.00685 15.5435C5.88218 16.9883 6.32854 18.3975 7.26356 19.5107C8.1997 20.6238 9.51095 21.3061 10.9558 21.4308C11.115 21.4442 11.2741 21.452 11.4322 21.452C12.7078 21.452 13.9323 21.0067 14.9229 20.1741C16.0361 19.238 16.7184 17.9267 16.8431 16.4819C16.8542 16.3483 16.8609 16.2103 16.8631 16.0711C17.1303 15.9632 17.7959 15.7483 18.5473 15.9086C18.8055 18.5144 20.8715 20.5603 23.4906 20.7874C26.476 21.0479 29.1186 18.8261 29.3779 15.8385C29.6373 12.8509 27.4166 10.2094 24.429 9.95119L24.4279 9.95008ZM28.8303 15.7906C28.7179 17.0896 28.1045 18.2684 27.1038 19.1099C26.1031 19.9515 24.8353 20.3522 23.5374 20.2409C20.8514 20.0082 18.8556 17.6339 19.0882 14.9491C19.2007 13.6501 19.814 12.4713 20.8147 11.6298C21.8154 10.7883 23.0821 10.3875 24.3811 10.4988C25.6801 10.6113 26.8589 11.2246 27.7005 12.2253C28.542 13.226 28.9438 14.4927 28.8314 15.7917L28.8303 15.7906ZM16.2954 16.434C16.0628 19.12 13.6863 21.1136 11.0036 20.8831C9.70464 20.7707 8.52584 20.1574 7.68432 19.1567C6.8428 18.156 6.44097 16.8893 6.55339 15.5903C6.66582 14.2912 7.27915 13.1125 8.27984 12.2709C9.17034 11.5229 10.2712 11.1222 11.4177 11.1222C11.5602 11.1222 11.7027 11.1278 11.8463 11.1411C14.5322 11.3738 16.5281 13.748 16.2954 16.4329V16.434Z" fill="#A9EFFF"/>
</g>
<path d="M14.9238 16.1257C15.0711 14.4243 13.8783 12.9313 12.2596 12.7911C10.6408 12.6509 9.2091 13.9165 9.06174 15.618C8.91438 17.3194 10.1072 18.8124 11.7259 18.9526C13.3447 19.0928 14.7764 17.8271 14.9238 16.1257Z" fill="white"/>
<path d="M12.653 16.8894C13.2333 16.8894 13.7037 16.419 13.7037 15.8387C13.7037 15.2583 13.2333 14.7879 12.653 14.7879C12.0726 14.7879 11.6022 15.2583 11.6022 15.8387C11.6022 16.419 12.0726 16.8894 12.653 16.8894Z" fill="#1B3E61"/>
<path d="M25.4086 15.5017C25.547 13.9038 24.5003 12.5081 23.0708 12.3843C21.6413 12.2605 20.3703 13.4555 20.2319 15.0534C20.0935 16.6513 21.1402 18.0471 22.5697 18.1709C23.9992 18.2947 25.2702 17.0997 25.4086 15.5017Z" fill="white"/>
<path d="M22.3804 16.3665C22.8814 16.2917 23.2229 15.7987 23.1433 15.2655C23.0636 14.7323 22.5928 14.3607 22.0918 14.4356C21.5908 14.5104 21.2493 15.0034 21.329 15.5366C21.4087 16.0698 21.8794 16.4414 22.3804 16.3665Z" fill="#1B3E61"/>
</svg>
