<svg width="32" height="32" viewBox="0 0 32 32" fill="none" xmlns="http://www.w3.org/2000/svg">
<path fill-rule="evenodd" clip-rule="evenodd" d="M25.273 6.35612H6.72704C6.52218 6.35612 6.35612 6.52218 6.35612 6.72704V25.273C6.35612 25.4778 6.52218 25.6439 6.72704 25.6439H25.273C25.4778 25.6439 25.6439 25.4778 25.6439 25.273V6.72704C25.6439 6.52218 25.4778 6.35612 25.273 6.35612ZM6.72704 4.87244C5.70277 4.87244 4.87244 5.70277 4.87244 6.72704V25.273C4.87244 26.2973 5.70277 27.1276 6.72704 27.1276H25.273C26.2973 27.1276 27.1276 26.2973 27.1276 25.273V6.72704C27.1276 5.70277 26.2973 4.87244 25.273 4.87244H6.72704Z" fill="#C0C6CF"/>
<path fill-rule="evenodd" clip-rule="evenodd" d="M27.1276 13.2181H4.87244V11.7344H27.1276V13.2181Z" fill="#C0C6CF"/>
<path fill-rule="evenodd" clip-rule="evenodd" d="M18.7819 27.1276V4.87244L20.2656 4.87244L20.2656 27.1276H18.7819Z" fill="#C0C6CF"/>
<path fill-rule="evenodd" clip-rule="evenodd" d="M27.1276 20.6365H4.87244V19.1528H27.1276V20.6365Z" fill="#C0C6CF"/>
<path fill-rule="evenodd" clip-rule="evenodd" d="M11.3635 27.1276L11.3635 4.87244L12.8472 4.87244L12.8472 27.1276H11.3635Z" fill="#C0C6CF"/>
<path fill-rule="evenodd" clip-rule="evenodd" d="M6.72704 5.30043C5.93914 5.30043 5.30043 5.93914 5.30043 6.72704V11.3065H5.92813V6.72704C5.92813 6.28582 6.28581 5.92813 6.72704 5.92813H10.9355V5.30043H6.72704ZM6.72704 4.44446C5.4664 4.44446 4.44446 5.4664 4.44446 6.72704V25.273C4.44446 26.5336 5.4664 27.5556 6.72704 27.5556H25.273C26.5336 27.5556 27.5556 26.5336 27.5556 25.273V6.72704C27.5556 5.4664 26.5336 4.44446 25.273 4.44446H6.72704ZM12.4192 5.30043H11.7915V5.92813H12.4192V5.30043ZM13.2752 5.92813V5.30043H18.3539V5.92813H13.2752ZM12.4192 6.7841H11.7915V11.3065H12.4192V6.7841ZM13.2752 11.3065V6.7841H18.3539V11.3065H13.2752ZM12.4192 12.1624H11.7915V12.7901H12.4192V12.1624ZM13.2752 12.7901V12.1624H18.3539V12.7901H13.2752ZM12.4192 13.6461H11.7915L11.7915 18.7248H12.4192L12.4192 13.6461ZM13.2752 18.7248L13.2752 13.6461H18.3539V18.7248H13.2752ZM12.4192 19.5808H11.7915V20.2085H12.4192V19.5808ZM13.2752 20.2085V19.5808H18.3539V20.2085H13.2752ZM12.4192 21.0645H11.7915V25.2159H12.4192V21.0645ZM13.2752 25.2159V21.0645H18.3539V25.2159H13.2752ZM12.4192 26.0719H11.7915V26.6996H12.4192V26.0719ZM13.2752 26.6996V26.0719H18.3539V26.6996H13.2752ZM19.2099 26.6996H19.8376V26.0719H19.2099V26.6996ZM19.2099 25.2159H19.8376V21.0645H19.2099V25.2159ZM19.2099 20.2085H19.8376V19.5808H19.2099V20.2085ZM19.2099 18.7248H19.8376L19.8376 13.6461H19.2099V18.7248ZM19.2099 12.7901H19.8376V12.1624H19.2099V12.7901ZM19.2099 11.3065H19.8376V6.7841H19.2099V11.3065ZM19.2099 5.92813H19.8376V5.30043H19.2099V5.92813ZM20.6936 5.30043V5.92813H25.273C25.7142 5.92813 26.0719 6.28581 26.0719 6.72704V11.3065H26.6996V6.72704C26.6996 5.93914 26.0609 5.30043 25.273 5.30043H20.6936ZM26.6996 12.1624H26.0719V12.7901H26.6996V12.1624ZM26.6996 13.6461H26.0719V18.7248H26.6996V13.6461ZM26.6996 19.5808H26.0719V20.2085H26.6996V19.5808ZM26.6996 21.0645H26.0719V25.273C26.0719 25.7142 25.7142 26.0719 25.273 26.0719H20.6936V26.6996H25.273C26.0609 26.6996 26.6996 26.0609 26.6996 25.273V21.0645ZM20.6936 25.2159H25.2159V21.0645H20.6936V25.2159ZM20.6936 20.2085H25.2159V19.5808H20.6936V20.2085ZM20.6936 18.7248H25.2159V13.6461H20.6936L20.6936 18.7248ZM20.6936 12.7901H25.2159V12.1624H20.6936V12.7901ZM20.6936 11.3065H25.2159V6.7841H20.6936V11.3065ZM10.9355 26.6996V26.0719H6.72704C6.28582 26.0719 5.92813 25.7142 5.92813 25.273V21.0645H5.30043V25.273C5.30043 26.0609 5.93914 26.6996 6.72704 26.6996H10.9355ZM5.30043 20.2085H5.92813V19.5808H5.30043V20.2085ZM5.30043 18.7248H5.92813V13.6461H5.30043V18.7248ZM5.30043 12.7901H5.92813V12.1624H5.30043V12.7901ZM6.7841 12.1624V12.7901H10.9355V12.1624H6.7841ZM10.9355 11.3065L10.9355 6.7841H6.7841V11.3065H10.9355ZM10.9355 13.6461H6.7841V18.7248H10.9355V13.6461ZM10.9355 19.5808H6.7841V20.2085H10.9355V19.5808ZM10.9355 21.0645H6.7841V25.2159H10.9355L10.9355 21.0645Z" fill="#C0C6CF"/>
</svg>
