<svg width="20" height="20" viewBox="0 0 20 20" fill="none" xmlns="http://www.w3.org/2000/svg">
<path d="M14.8795 5H5V6.82982H14.8795V5Z" fill="#1D232F"/>
<path d="M14.8795 7.43975H11.1257V9.26957H14.8795V7.43975Z" fill="#1D232F"/>
<path d="M7.39834 7.43975H5V9.26957H7.39834C8.29442 9.26957 9.02484 9.99999 9.02484 10.8961V14.8795H10.8547V10.8961C10.8547 8.99095 9.30346 7.43975 7.39834 7.43975Z" fill="#1D232F"/>
<path d="M13.0045 11.9277C12.1574 11.9277 11.4684 12.6167 11.4684 13.4639C11.4684 14.311 12.1574 15 13.0045 15C13.8516 15 14.5406 14.311 14.5406 13.4639C14.5406 12.6167 13.8516 11.9277 13.0045 11.9277Z" fill="#1D232F"/>
</svg>
