<svg width="32" height="32" viewBox="0 0 32 32" fill="none" xmlns="http://www.w3.org/2000/svg">
<path fill-rule="evenodd" clip-rule="evenodd" d="M2.03168 9.16248C2.03168 7.28417 3.48815 5.74604 5.33333 5.61585V3.55566H10.6667V5.60693H21.3333V3.55566H26.6667V5.61586C28.5118 5.74611 29.9682 7.28422 29.9682 9.16248V24.7522C29.9682 26.7159 28.3763 28.3078 26.4126 28.3078H5.58723C3.62355 28.3078 2.03168 26.7159 2.03168 24.7522V9.16248ZM14.2222 9.16248H5.58723V15.0428H14.2222V9.16248ZM17.7778 9.16248V15.0428H26.4126V9.16248H17.7778ZM14.2222 18.8719H5.58723V24.7522H14.2222V18.8719ZM17.7778 24.7522V18.8719H26.4126V24.7522H17.7778Z" fill="#C0C6CF"/>
</svg>
