<svg width="32" height="32" viewBox="0 0 32 32" fill="none" xmlns="http://www.w3.org/2000/svg">
<path d="M7.1111 14.2223H11.1111L7.55554 26.6667H3.55554V30.2223H7.55554C8.32715 30.2212 9.07745 29.9691 9.69319 29.5041C10.3089 29.039 10.7567 28.3864 10.9689 27.6445L14.8089 14.2223H19.5555V10.6667H15.8222L17.3333 5.33339H21.3333V1.77783H17.3333C16.5617 1.77895 15.8114 2.03104 15.1957 2.49605C14.5799 2.96106 14.1322 3.61376 13.92 4.35561L12.1244 10.6667H7.1111V14.2223Z" fill="#C0C6CF"/>
<path d="M16.2157 19.8732L18.7298 17.3591L22.5011 21.1303L26.2723 17.3591L28.7865 19.8732L25.0152 23.6445L28.7865 27.4157L26.2723 29.9299L22.5011 26.1586L18.7298 29.9299L16.2157 27.4157L19.9869 23.6445L16.2157 19.8732Z" fill="#C0C6CF"/>
</svg>
